    <svg class="icon" viewBox="0 0 24 24" xmlns="http://www.w3.org/2000/svg">
        <!-- Heart Shape -->
        <path d="M12 21.35l-1.45-1.32C5.4 15.36 2 12.28 2 8.5 2 5.42 4.42 3 7.5 3c1.74 0 3.41.81 4.5 2.09C13.09 3.81 14.76 3 16.5 3 19.58 3 22 5.42 22 8.5c0 3.78-3.4 6.86-8.55 11.54L12 21.35z" fill="goldenrod"/>

        <!-- Dots -->
        <circle cx="17" cy="8" r="4" fill="#FDD700"/>
        <circle cx="17" cy="11" r="3" fill="#FDD700"/>
        <circle cx="12" cy="10.5" r="4" fill="#FDD700"/>


        <circle cx="17" cy="6.8" r="1.5" fill="white"/>
        <circle cx="18" cy="8" r="2" fill="white"/>
        <circle cx="16" cy="10" r="1.5" fill="white"/>

    </svg>